font-3.sfdir
StartChar: comma
Encoding: 2 44 1
Width: 208
Flags: MW
VStem: 72 86<-25.5 92>
LayerCount: 2
Fore
SplineSet
158 92 m 2
 158 7 149 -25 137 -55 c 0
 113 -114 57 -143 57 -143 c 1
 30 -120 l 1
 30 -120 72 -71 72 20 c 0
 72 70 64 95 64 95 c 1
 158 95 l 1
 158 92 l 2
EndSplineSet
EndChar
StartChar: period
Encoding: 3 46 2
Width: 212
Flags: MW
HStem: -12 116<107.5 140>
VStem: 65 117<28 63.5 28 63.5>
LayerCount: 2
Fore
SplineSet
182 46 m 0
 182 10 157 -12 123 -12 c 0
 90 -12 65 10 65 45 c 0
 65 82 90 104 125 104 c 0
 159 104 182 81 182 46 c 0
EndSplineSet
EndChar
StartChar: P
Encoding: 4 80 3
Width: 513
Flags: MW
HStem: 0 20 298 45<251.5 285.5 242.5 343.5> 666 42<214 252.5 184.5 297>
VStem: 87 85<0 664 0 703 0 703> 404 91<449 551>
LayerCount: 2
Fore
SplineSet
495 512 m 0
 495 386 409 298 278 298 c 0
 225 298 198 306 198 306 c 1
 207 350 l 1
 207 350 225 343 260 343 c 0
 311 343 404 357 404 506 c 0
 404 596 367 666 227 666 c 0
 201 666 172 664 172 664 c 1
 172 0 l 1
 87 0 l 1
 87 703 l 1
 87 703 144 708 225 708 c 0
 280 708 321 706 367 692 c 0
 397 683 495 641 495 512 c 0
EndSplineSet
EndChar
StartChar: a
Encoding: 5 97 4
Width: 480
Flags: MW
HStem: -7 56<206.5 235> 233 44<319 319> 466 51<191.5 239.5>
VStem: 42 86<105.5 154.5 105.5 159.5> 319 84<66 233 233 233 277 291>
LayerCount: 2
Fore
SplineSet
403 0 m 1
 321 0 l 1
 321 48 l 1
 321 48 276 -7 194 -7 c 0
 101 -7 42 49 42 134 c 0
 42 185 62 223 96 248 c 0
 131 273 182 279 244 279 c 0
 279 279 319 277 319 277 c 1
 319 314 l 2
 319 347 319 385 313 406 c 0
 301 452 264 466 215 466 c 0
 154 466 113 438 113 438 c 1
 92 492 l 1
 92 492 146 517 237 517 c 0
 375 517 392 439 397 420 c 0
 405 390 403 307 403 291 c 2
 403 0 l 1
319 66 m 1
 319 233 l 1
 319 233 306 234 259 234 c 0
 221 234 190 231 170 220 c 0
 136 202 128 169 128 140 c 0
 128 71 180 49 233 49 c 0
 285 49 319 66 319 66 c 1
EndSplineSet
EndChar
StartChar: b
Encoding: 6 98 5
Width: 568
Flags: MW
HStem: -8 49<217 309.5 217 343> 456 57<259.5 317>
VStem: 83 84<48 433 456 774> 428 89<186.5 318>
LayerCount: 2
Fore
SplineSet
517 264 m 0
 517 109 426 -8 260 -8 c 0
 145 -8 83 23 83 23 c 1
 83 774 l 1
 167 774 l 1
 167 456 l 1
 167 456 209 513 310 513 c 0
 436 513 517 421 517 264 c 0
428 257 m 0
 428 379 370 456 264 456 c 0
 204 456 167 433 167 433 c 1
 167 48 l 1
 167 48 183 41 251 41 c 0
 368 41 428 115 428 257 c 0
EndSplineSet
EndChar
StartChar: c
Encoding: 7 99 6
Width: 471
Flags: MW
HStem: -8 56<256 346> 462 54<261.5 351>
VStem: 51 88<188.5 273.5>
LayerCount: 2
Fore
SplineSet
441 491 m 1
 423 435 l 1
 423 435 386 462 316 462 c 0
 207 462 139 411 139 252 c 0
 139 125 198 48 314 48 c 0
 384 48 421 73 421 73 c 1
 439 20 l 1
 439 20 396 -8 296 -8 c 0
 148 -8 51 85 51 243 c 0
 51 304 64 356 90 400 c 0
 124 457 190 516 318 516 c 0
 393 516 441 491 441 491 c 1
EndSplineSet
EndChar
StartChar: d
Encoding: 8 100 7
Width: 568
Flags: MW
HStem: -7 57<250 311.5> 465 50<263 330 224.5 347.5>
VStem: 51 89<189 323 189 325> 401 84<73 455 455 455 494 774>
LayerCount: 2
Fore
SplineSet
485 0 m 1
 403 0 l 1
 403 52 l 1
 403 52 362 -7 261 -7 c 0
 143 -7 51 74 51 241 c 0
 51 409 157 515 292 515 c 0
 368 515 401 494 401 494 c 1
 401 774 l 1
 485 774 l 1
 485 0 l 1
401 73 m 1
 401 455 l 1
 401 455 371 465 324 465 c 0
 202 465 140 397 140 249 c 0
 140 129 197 50 303 50 c 0
 364 50 401 73 401 73 c 1
EndSplineSet
EndChar
StartChar: e
Encoding: 9 101 8
Width: 512
Flags: MW
HStem: -8 56<291 346.5> 278 47<139 377 139 467 136 377> 470 47<235 300.5>
VStem: 51 85<161.5 262 262 278 161.5 292>
LayerCount: 2
Fore
SplineSet
467 278 m 1
 136 278 l 1
 136 262 l 2
 136 61 265 48 317 48 c 0
 387 48 427 73 427 73 c 1
 445 20 l 1
 445 20 393 -8 300 -8 c 0
 202 -8 51 21 51 253 c 0
 51 331 81 517 273 517 c 0
 413 517 467 427 467 297 c 2
 467 278 l 1
377 325 m 1
 377 334 l 2
 377 422 339 470 262 470 c 0
 208 470 168 446 150 392 c 0
 139 358 139 325 139 325 c 1
 377 325 l 1
EndSplineSet
EndChar
StartChar: f
Encoding: 10 102 9
Width: 284
Flags: MW
HStem: 0 20 454 49<18 91 18 91 175 294> 724 50<244.5 286>
VStem: 91 84<0 454 0 454 503 538 538 552.5>
LayerCount: 2
Fore
SplineSet
349 757 m 1
 333 707 l 1
 333 707 307 724 265 724 c 0
 224 724 201 709 188 684 c 0
 176 661 175 627 175 577 c 2
 175 503 l 1
 294 503 l 1
 294 454 l 1
 175 454 l 1
 175 0 l 1
 91 0 l 1
 91 454 l 1
 18 454 l 1
 18 503 l 1
 91 503 l 1
 91 538 l 2
 91 567 90 629 101 665 c 0
 122 731 171 774 260 774 c 0
 313 774 349 757 349 757 c 1
EndSplineSet
EndChar
StartChar: g
Encoding: 11 103 10
Width: 519
Flags: MW
HStem: -226 50<218 299 218 314.5> 13 71<162 352.5> 177 39<223 250.5 205.5 300.5> 454 49<382 509 382 382>
VStem: 90 77<106 124.5> 417 76<-82 -19.5>
LayerCount: 2
Fore
SplineSet
509 454 m 1
 382 454 l 1
 382 454 428 419 428 344 c 0
 428 252 364 177 237 177 c 0
 209 177 195 180 195 180 c 1
 195 180 167 158 167 129 c 0
 167 83 206 82 239 82 c 0
 274 82 298 84 333 84 c 0
 372 84 493 91 493 -30 c 0
 493 -134 402 -226 227 -226 c 0
 127 -226 22 -200 22 -96 c 0
 22 -2 128 26 128 26 c 1
 128 26 90 42 90 89 c 0
 90 160 164 190 164 190 c 1
 164 190 52 218 52 343 c 0
 52 438 119 516 243 516 c 0
 283 516 320 503 320 503 c 1
 509 503 l 1
 509 454 l 1
340 347 m 0
 340 419 311 477 240 477 c 0
 221 477 203 472 190 464 c 0
 149 439 141 391 141 346 c 0
 141 274 170 216 241 216 c 0
 260 216 278 221 291 229 c 0
 332 254 340 302 340 347 c 0
417 -58 m 0
 417 19 339 13 269 13 c 2
 162 13 l 1
 162 13 100 -13 100 -79 c 0
 100 -173 193 -176 243 -176 c 0
 355 -176 417 -129 417 -58 c 0
EndSplineSet
EndChar
StartChar: h
Encoding: 12 104 11
Width: 561
Flags: MW
HStem: 0 20 458 59<265.5 302>
VStem: 83 84<0 435 0 456 456 774> 400 84<0 260 260 280.5>
LayerCount: 2
Fore
SplineSet
484 0 m 1
 400 0 l 1
 400 260 l 2
 400 301 401 333 396 361 c 0
 384 433 336 458 268 458 c 0
 210 458 167 435 167 435 c 1
 167 0 l 1
 83 0 l 1
 83 774 l 1
 167 774 l 1
 167 456 l 1
 167 456 214 517 317 517 c 0
 422 517 464 454 476 403 c 0
 484 367 484 326 484 303 c 2
 484 0 l 1
EndSplineSet
EndChar
StartChar: i
Encoding: 13 105 12
Width: 250
Flags: MW
HStem: 0 20 604 106<109.5 140.5>
VStem: 84 84<0 506>
LayerCount: 2
Fore
SplineSet
179 658 m 0
 179 623 157 604 124 604 c 0
 93 604 71 624 71 656 c 0
 71 691 93 710 126 710 c 0
 157 710 179 690 179 658 c 0
168 0 m 1
 84 0 l 1
 84 506 l 1
 168 506 l 1
 168 0 l 1
EndSplineSet
EndChar
StartChar: j
Encoding: 14 106 13
Width: 250
Flags: MW
HStem: -226 53<8 42.5 -7 45.5> 604 106<113.5 144.5>
VStem: 88 84<-74.5 -68 -68 506>
LayerCount: 2
Fore
SplineSet
183 658 m 0
 183 623 161 604 128 604 c 0
 97 604 75 624 75 656 c 0
 75 691 97 710 130 710 c 0
 161 710 183 690 183 658 c 0
172 -68 m 2
 172 -81 171 -100 168 -120 c 0
 163 -148 151 -179 121 -200 c 0
 96 -218 64 -226 27 -226 c 0
 -11 -226 -33 -220 -33 -220 c 1
 -27 -170 l 1
 -27 -170 -18 -173 4 -173 c 0
 81 -173 88 -125 88 -82 c 2
 88 506 l 1
 172 506 l 1
 172 -68 l 2
EndSplineSet
EndChar
StartChar: l
Encoding: 15 108 14
Width: 250
Flags: MW
HStem: 0 20
VStem: 83 84<0 774>
LayerCount: 2
Fore
SplineSet
167 0 m 1
 83 0 l 1
 83 774 l 1
 167 774 l 1
 167 0 l 1
EndSplineSet
EndChar
StartChar: m
Encoding: 16 109 15
Width: 868
Flags: MW
HStem: 0 20 457 61<562.5 601.5>
VStem: 81 82<456 506 456 506 456 506> 394 84<0 266 266 284.5> 707 84<0 266 266 284.5>
LayerCount: 2
Fore
SplineSet
791 0 m 1
 707 0 l 1
 707 266 l 2
 707 303 707 329 703 360 c 0
 691 443 629 457 574 457 c 0
 509 457 461 430 461 430 c 1
 461 430 467 415 471 397 c 0
 479 364 478 310 478 285 c 2
 478 0 l 1
 394 0 l 1
 394 266 l 2
 394 303 394 328 390 359 c 0
 381 424 340 458 264 458 c 0
 203 458 165 435 165 435 c 1
 165 0 l 1
 81 0 l 1
 81 506 l 1
 163 506 l 1
 163 456 l 1
 163 456 214 517 309 517 c 0
 420 517 450 451 450 451 c 1
 450 451 504 518 621 518 c 0
 675 518 760 501 783 403 c 0
 791 367 791 330 791 307 c 2
 791 0 l 1
EndSplineSet
EndChar
StartChar: n
Encoding: 17 110 16
Width: 559
Flags: MW
HStem: 0 20 458 59<263 300>
VStem: 81 82<456 506 456 506 456 506> 398 84<0 260 260 280.5>
LayerCount: 2
Fore
SplineSet
482 0 m 1
 398 0 l 1
 398 260 l 2
 398 301 399 333 394 361 c 0
 382 433 334 458 266 458 c 0
 208 458 165 435 165 435 c 1
 165 0 l 1
 81 0 l 1
 81 506 l 1
 163 506 l 1
 163 456 l 1
 163 456 211 517 315 517 c 0
 420 517 462 454 474 403 c 0
 482 367 482 326 482 303 c 2
 482 0 l 1
EndSplineSet
EndChar
StartChar: o
Encoding: 18 111 17
Width: 570
Flags: MW
HStem: -13 50<234.5 339 234.5 380.5> 468 50<231 335.5>
VStem: 51 90<193.5 293.5> 429 90<211.5 311.5>
LayerCount: 2
Fore
SplineSet
519 258 m 0
 519 165 481 -13 280 -13 c 0
 134 -13 51 93 51 247 c 0
 51 340 89 518 290 518 c 0
 436 518 519 412 519 258 c 0
429 253 m 0
 429 370 390 468 281 468 c 0
 181 468 141 384 141 252 c 0
 141 135 180 37 289 37 c 0
 389 37 429 121 429 253 c 0
EndSplineSet
EndChar
StartChar: p
Encoding: 19 112 18
Width: 566
Flags: MW
HStem: -226 20 -9 50<235 303 217 341.5> 456 57<256 316>
VStem: 81 82<454 506 454 506 454 506> 426 89<183 317>
LayerCount: 2
Fore
SplineSet
515 265 m 0
 515 97 409 -9 274 -9 c 0
 196 -9 165 12 165 12 c 1
 165 -226 l 1
 81 -226 l 1
 81 506 l 1
 163 506 l 1
 163 454 l 1
 163 454 205 513 307 513 c 0
 434 513 515 420 515 265 c 0
426 257 m 0
 426 377 369 456 263 456 c 0
 201 456 165 433 165 433 c 1
 165 51 l 1
 165 51 192 41 242 41 c 0
 364 41 426 109 426 257 c 0
EndSplineSet
EndChar
StartChar: r
Encoding: 20 114 19
Width: 354
Flags: MW
HStem: 0 20 449 67<248.5 269.5>
VStem: 81 82<448 506 448 506 448 506>
LayerCount: 2
Fore
SplineSet
354 500 m 1
 328 426 l 1
 311 439 290 449 249 449 c 0
 201 449 165 428 165 428 c 1
 165 0 l 1
 81 0 l 1
 81 506 l 1
 163 506 l 1
 163 448 l 1
 163 448 212 516 285 516 c 0
 322 516 340 506 354 500 c 1
EndSplineSet
EndChar
StartChar: s
Encoding: 21 115 20
Width: 398
Flags: MW
HStem: -7 55<130 207 130 210> 464 52<200 252.5>
VStem: 48 75<374.5 424.5 374.5 431> 281 77<103.5 148.5>
LayerCount: 2
Fore
SplineSet
358 146 m 0
 358 12 242 -7 178 -7 c 0
 79 -7 30 20 30 20 c 1
 48 73 l 1
 48 73 88 48 172 48 c 0
 242 48 281 79 281 128 c 0
 281 169 262 183 225 204 c 2
 141 251 l 2
 81 285 48 320 48 384 c 0
 48 478 123 516 217 516 c 0
 302 516 346 490 346 490 c 1
 328 436 l 1
 328 436 286 464 219 464 c 0
 181 464 123 453 123 396 c 0
 123 353 146 341 193 315 c 2
 273 271 l 2
 328 241 358 201 358 146 c 0
EndSplineSet
EndChar
StartChar: t
Encoding: 22 116 21
Width: 356
Flags: MW
HStem: -6 53<223.5 269.5> 454 49<177 344 177 344>
VStem: 93 84<177 454>
LayerCount: 2
Fore
SplineSet
346 12 m 1
 346 12 307 -6 232 -6 c 0
 165 -6 121 13 102 73 c 0
 94 97 93 146 93 177 c 2
 93 454 l 1
 20 454 l 1
 20 488 l 1
 29 491 l 2
 88 511 126 545 132 608 c 2
 133 619 l 1
 177 619 l 1
 177 503 l 1
 344 503 l 1
 344 454 l 1
 177 454 l 1
 177 150 l 2
 177 94 187 47 260 47 c 0
 302 47 330 62 330 62 c 1
 346 12 l 1
EndSplineSet
EndChar
StartChar: u
Encoding: 23 117 22
Width: 559
Flags: MW
HStem: -11 59<255 295.5> 486 20G<77 161 161 161 394 478 478 478>
VStem: 77 84<213.5 241 241 506> 394 84<71 506>
LayerCount: 2
Fore
SplineSet
478 0 m 1
 396 0 l 1
 396 50 l 1
 396 50 345 -11 246 -11 c 0
 213 -11 112 -9 86 100 c 0
 76 142 77 195 77 211 c 2
 77 506 l 1
 161 506 l 1
 161 241 l 2
 161 186 162 171 165 148 c 0
 175 79 217 48 293 48 c 0
 351 48 394 71 394 71 c 1
 394 506 l 1
 478 506 l 1
 478 0 l 1
EndSplineSet
EndChar
StartChar: v
Encoding: 24 118 23
Width: 455
Flags: MW
HStem: -4 20 486 20G<5 95 95 95 376 450 450 450>
LayerCount: 2
Fore
SplineSet
450 506 m 1
 244 -4 l 1
 200 -4 l 1
 5 506 l 1
 95 506 l 1
 212 175 l 2
 227 132 231 110 231 110 c 1
 231 110 234 125 252 174 c 2
 376 506 l 1
 450 506 l 1
EndSplineSet
EndChar
StartChar: y
Encoding: 25 121 24
Width: 450
Flags: MW
HStem: -226 54<58 93 58 104> 486 20G<0 90 90 90 371 445 445 445>
LayerCount: 2
Fore
SplineSet
445 506 m 1
 217 -113 l 2
 188 -191 137 -226 71 -226 c 0
 28 -226 9 -216 9 -216 c 1
 27 -163 l 1
 27 -163 47 -172 69 -172 c 0
 117 -172 138 -146 164 -78 c 2
 194 2 l 1
 0 506 l 1
 90 506 l 1
 214 158 l 2
 228 118 233 93 233 93 c 1
 233 93 235 101 254 158 c 2
 371 506 l 1
 445 506 l 1
EndSplineSet
EndChar
